<mxfile host="app.diagrams.net" modified="2024-01-16T10:05:58.920Z" agent="Mozilla/5.0 (Windows NT 10.0; Win64; x64) AppleWebKit/537.36 (KHTML, like Gecko) Chrome/120.0.0.0 Safari/537.36" etag="Z6PlFbhzBitCA2wdDafe" version="22.1.18" type="device">
  <diagram name="Page-1" id="Dx7SoACpEGiI7f75aKbL">
    <mxGraphModel dx="2868" dy="1600" grid="1" gridSize="10" guides="1" tooltips="1" connect="1" arrows="1" fold="1" page="1" pageScale="1" pageWidth="850" pageHeight="1100" math="0" shadow="0">
      <root>
        <mxCell id="0" />
        <mxCell id="1" parent="0" />
        <mxCell id="gGUqmxZunpzsBXcEJyCN-1" value="" style="rounded=0;whiteSpace=wrap;html=1;" parent="1" vertex="1">
          <mxGeometry x="210" y="270" width="442.5" height="560" as="geometry" />
        </mxCell>
        <mxCell id="gGUqmxZunpzsBXcEJyCN-2" value="&lt;font style=&quot;font-size: 14px;&quot; face=&quot;Times New Roman&quot;&gt;Text-to-Image &lt;br style=&quot;font-size: 14px;&quot;&gt;Generator &lt;br style=&quot;font-size: 14px;&quot;&gt;system&lt;/font&gt;" style="shape=umlActor;verticalLabelPosition=bottom;verticalAlign=top;html=1;outlineConnect=0;fontSize=14;" parent="1" vertex="1">
          <mxGeometry x="740" y="510" width="40" height="80" as="geometry" />
        </mxCell>
        <mxCell id="gGUqmxZunpzsBXcEJyCN-3" value="&lt;font style=&quot;font-size: 14px;&quot; face=&quot;Times New Roman&quot;&gt;User&lt;/font&gt;" style="shape=umlActor;verticalLabelPosition=bottom;verticalAlign=top;html=1;outlineConnect=0;" parent="1" vertex="1">
          <mxGeometry x="70" y="510" width="40" height="80" as="geometry" />
        </mxCell>
        <mxCell id="w1NebF3XjIvzTh4Zjo_r-1" value="&lt;font style=&quot;font-size: 14px;&quot; face=&quot;Times New Roman&quot;&gt;Visualize image&lt;/font&gt;" style="ellipse;whiteSpace=wrap;html=1;" parent="1" vertex="1">
          <mxGeometry x="250" y="700" width="135" height="60" as="geometry" />
        </mxCell>
        <mxCell id="w1NebF3XjIvzTh4Zjo_r-3" value="&lt;font face=&quot;Times New Roman&quot; style=&quot;font-size: 14px;&quot;&gt;Model&lt;/font&gt;" style="ellipse;whiteSpace=wrap;html=1;" parent="1" vertex="1">
          <mxGeometry x="475" y="620" width="135" height="60" as="geometry" />
        </mxCell>
        <mxCell id="w1NebF3XjIvzTh4Zjo_r-4" value="&lt;font face=&quot;Times New Roman&quot; style=&quot;font-size: 14px;&quot;&gt;Validate input&lt;/font&gt;" style="ellipse;whiteSpace=wrap;html=1;" parent="1" vertex="1">
          <mxGeometry x="475" y="350" width="135" height="60" as="geometry" />
        </mxCell>
        <mxCell id="w1NebF3XjIvzTh4Zjo_r-5" value="&lt;font face=&quot;Times New Roman&quot; style=&quot;font-size: 14px;&quot;&gt;Display input error&lt;/font&gt;" style="ellipse;whiteSpace=wrap;html=1;" parent="1" vertex="1">
          <mxGeometry x="238" y="550" width="135" height="60" as="geometry" />
        </mxCell>
        <mxCell id="w1NebF3XjIvzTh4Zjo_r-6" value="&lt;font style=&quot;font-size: 14px;&quot; face=&quot;Times New Roman&quot;&gt;Provide input prompt&lt;/font&gt;" style="ellipse;whiteSpace=wrap;html=1;" parent="1" vertex="1">
          <mxGeometry x="238" y="400" width="135" height="60" as="geometry" />
        </mxCell>
        <mxCell id="w1NebF3XjIvzTh4Zjo_r-7" value="&lt;font face=&quot;Times New Roman&quot; style=&quot;font-size: 14px;&quot;&gt;Return generated image&lt;/font&gt;" style="ellipse;whiteSpace=wrap;html=1;" parent="1" vertex="1">
          <mxGeometry x="475" y="740" width="135" height="60" as="geometry" />
        </mxCell>
        <mxCell id="w1NebF3XjIvzTh4Zjo_r-8" value="&lt;font style=&quot;font-size: 14px;&quot; face=&quot;Times New Roman&quot;&gt;Generate Image&lt;/font&gt;" style="ellipse;whiteSpace=wrap;html=1;" parent="1" vertex="1">
          <mxGeometry x="475" y="490" width="135" height="60" as="geometry" />
        </mxCell>
        <mxCell id="w1NebF3XjIvzTh4Zjo_r-10" value="&lt;font face=&quot;Times New Roman&quot; style=&quot;font-size: 13px;&quot;&gt;&amp;lt;&amp;lt;include&amp;gt;&amp;gt;&lt;/font&gt;" style="endArrow=open;endSize=12;dashed=1;html=1;rounded=0;exitX=1;exitY=0;exitDx=0;exitDy=0;entryX=0;entryY=0.5;entryDx=0;entryDy=0;" parent="1" source="w1NebF3XjIvzTh4Zjo_r-6" edge="1" target="w1NebF3XjIvzTh4Zjo_r-4">
          <mxGeometry width="160" relative="1" as="geometry">
            <mxPoint x="210" y="530" as="sourcePoint" />
            <mxPoint x="440" y="440" as="targetPoint" />
          </mxGeometry>
        </mxCell>
        <mxCell id="w1NebF3XjIvzTh4Zjo_r-12" value="&lt;font style=&quot;font-size: 13px;&quot; face=&quot;Times New Roman&quot;&gt;&amp;lt;&amp;lt;extend&amp;gt;&amp;gt;&lt;/font&gt;" style="endArrow=open;endSize=12;dashed=1;html=1;rounded=0;exitX=0.5;exitY=0;exitDx=0;exitDy=0;entryX=0.5;entryY=1;entryDx=0;entryDy=0;" parent="1" source="w1NebF3XjIvzTh4Zjo_r-5" target="w1NebF3XjIvzTh4Zjo_r-6" edge="1">
          <mxGeometry width="160" relative="1" as="geometry">
            <mxPoint x="335" y="480" as="sourcePoint" />
            <mxPoint x="450" y="450" as="targetPoint" />
          </mxGeometry>
        </mxCell>
        <mxCell id="w1NebF3XjIvzTh4Zjo_r-14" value="&lt;font style=&quot;font-size: 13px;&quot; face=&quot;Times New Roman&quot;&gt;&amp;lt;&amp;lt;include&amp;gt;&amp;gt;&lt;/font&gt;" style="endArrow=open;endSize=12;dashed=1;html=1;rounded=0;exitX=1;exitY=1;exitDx=0;exitDy=0;" parent="1" source="w1NebF3XjIvzTh4Zjo_r-1" target="w1NebF3XjIvzTh4Zjo_r-7" edge="1">
          <mxGeometry width="160" relative="1" as="geometry">
            <mxPoint x="268" y="770" as="sourcePoint" />
            <mxPoint x="383" y="740" as="targetPoint" />
          </mxGeometry>
        </mxCell>
        <mxCell id="w1NebF3XjIvzTh4Zjo_r-15" value="" style="endArrow=none;html=1;rounded=0;exitX=1;exitY=0.3333333333333333;exitDx=0;exitDy=0;exitPerimeter=0;entryX=0;entryY=0.5;entryDx=0;entryDy=0;" parent="1" source="gGUqmxZunpzsBXcEJyCN-3" target="w1NebF3XjIvzTh4Zjo_r-6" edge="1">
          <mxGeometry width="50" height="50" relative="1" as="geometry">
            <mxPoint x="260" y="620" as="sourcePoint" />
            <mxPoint x="310" y="570" as="targetPoint" />
          </mxGeometry>
        </mxCell>
        <mxCell id="w1NebF3XjIvzTh4Zjo_r-17" value="" style="endArrow=none;html=1;rounded=0;exitX=1;exitY=0.3333333333333333;exitDx=0;exitDy=0;exitPerimeter=0;entryX=0;entryY=0.5;entryDx=0;entryDy=0;" parent="1" source="gGUqmxZunpzsBXcEJyCN-3" target="w1NebF3XjIvzTh4Zjo_r-1" edge="1">
          <mxGeometry width="50" height="50" relative="1" as="geometry">
            <mxPoint x="110" y="560" as="sourcePoint" />
            <mxPoint x="220" y="490" as="targetPoint" />
          </mxGeometry>
        </mxCell>
        <mxCell id="w1NebF3XjIvzTh4Zjo_r-21" value="" style="endArrow=none;html=1;rounded=0;exitX=0;exitY=0.3333333333333333;exitDx=0;exitDy=0;exitPerimeter=0;entryX=1;entryY=0.5;entryDx=0;entryDy=0;" parent="1" source="gGUqmxZunpzsBXcEJyCN-2" target="w1NebF3XjIvzTh4Zjo_r-3" edge="1">
          <mxGeometry width="50" height="50" relative="1" as="geometry">
            <mxPoint x="320" y="620" as="sourcePoint" />
            <mxPoint x="570" y="580" as="targetPoint" />
          </mxGeometry>
        </mxCell>
        <mxCell id="w1NebF3XjIvzTh4Zjo_r-22" value="&lt;font style=&quot;font-size: 13px;&quot; face=&quot;Times New Roman&quot;&gt;&amp;lt;&amp;lt;include&amp;gt;&amp;gt;&lt;/font&gt;" style="endArrow=open;endSize=12;dashed=1;html=1;rounded=0;exitX=0.5;exitY=1;exitDx=0;exitDy=0;entryX=0.5;entryY=0;entryDx=0;entryDy=0;" parent="1" source="w1NebF3XjIvzTh4Zjo_r-8" target="w1NebF3XjIvzTh4Zjo_r-3" edge="1">
          <mxGeometry width="160" relative="1" as="geometry">
            <mxPoint x="339" y="696" as="sourcePoint" />
            <mxPoint x="444" y="650" as="targetPoint" />
          </mxGeometry>
        </mxCell>
        <mxCell id="w1NebF3XjIvzTh4Zjo_r-23" value="&lt;font face=&quot;Times New Roman&quot; style=&quot;font-size: 13px;&quot;&gt;&amp;lt;&amp;lt;include&amp;gt;&amp;gt;&lt;/font&gt;" style="endArrow=open;endSize=12;dashed=1;html=1;rounded=0;exitX=0.5;exitY=1;exitDx=0;exitDy=0;entryX=0.5;entryY=0;entryDx=0;entryDy=0;" parent="1" source="w1NebF3XjIvzTh4Zjo_r-4" target="w1NebF3XjIvzTh4Zjo_r-8" edge="1">
          <mxGeometry x="-0.0005" width="160" relative="1" as="geometry">
            <mxPoint x="570" y="475" as="sourcePoint" />
            <mxPoint x="540" y="490" as="targetPoint" />
            <mxPoint as="offset" />
          </mxGeometry>
        </mxCell>
        <mxCell id="w1NebF3XjIvzTh4Zjo_r-25" value="&lt;font face=&quot;Times New Roman&quot; style=&quot;font-size: 13px;&quot;&gt;&amp;lt;&amp;lt;include&amp;gt;&amp;gt;&lt;/font&gt;" style="endArrow=open;endSize=12;dashed=1;html=1;rounded=0;exitX=0.5;exitY=1;exitDx=0;exitDy=0;entryX=0.5;entryY=0;entryDx=0;entryDy=0;" parent="1" source="w1NebF3XjIvzTh4Zjo_r-3" target="w1NebF3XjIvzTh4Zjo_r-7" edge="1">
          <mxGeometry width="160" relative="1" as="geometry">
            <mxPoint x="560" y="720" as="sourcePoint" />
            <mxPoint x="680" y="804" as="targetPoint" />
          </mxGeometry>
        </mxCell>
        <mxCell id="w1NebF3XjIvzTh4Zjo_r-26" value="&lt;h3 style=&quot;font-size: 17px;&quot;&gt;&lt;font face=&quot;Times New Roman&quot; style=&quot;font-size: 17px;&quot;&gt;TEXT-TO-IMAGE GENERATOR&lt;/font&gt;&lt;/h3&gt;" style="text;html=1;strokeColor=none;fillColor=none;align=center;verticalAlign=middle;whiteSpace=wrap;rounded=0;fontSize=17;" parent="1" vertex="1">
          <mxGeometry x="300" y="290" width="278.75" height="30" as="geometry" />
        </mxCell>
        <mxCell id="hWkzAkKzOIaXmsCI_Om8-3" value="" style="endArrow=none;html=1;rounded=0;exitX=0;exitY=0.3333333333333333;exitDx=0;exitDy=0;exitPerimeter=0;entryX=1;entryY=0.5;entryDx=0;entryDy=0;" edge="1" parent="1" source="gGUqmxZunpzsBXcEJyCN-2" target="w1NebF3XjIvzTh4Zjo_r-4">
          <mxGeometry width="50" height="50" relative="1" as="geometry">
            <mxPoint x="770" y="530" as="sourcePoint" />
            <mxPoint x="592" y="639" as="targetPoint" />
          </mxGeometry>
        </mxCell>
      </root>
    </mxGraphModel>
  </diagram>
</mxfile>
